{
	"accessors": [
		{
			"bufferView": 0,
			"componentType": 5126,
			"count": 4,
			"max": [
				512.0,
				512.0,
				0.0
			],
			"min": [
				-512.0,
				-512.0,
				0.0
			],
			"type": "VEC3"
		},
		{
			"bufferView": 1,
			"componentType": 5126,
			"count": 4,
			"type": "VEC2"
		},
		{
			"bufferView": 2,
			"componentType": 5123,
			"count": 6,
			"type": "SCALAR"
		},
		{
			"bufferView": 3,
			"componentType": 5126,
			"count": 4,
			"max": [
				512.0,
				512.0,
				0.0
			],
			"min": [
				-512.0,
				-512.0,
				0.0
			],
			"type": "VEC3"
		},
		{
			"bufferView": 4,
			"componentType": 5126,
			"count": 4,
			"type": "VEC2"
		},
		{
			"bufferView": 5,
			"componentType": 5123,
			"count": 6,
			"type": "SCALAR"
		}
	],
	"asset": {
		"generator": "gdpaint-composited-scene",
		"version": "2.0"
	},
	"bufferViews": [
		{
			"buffer": 0,
			"byteLength": 48,
			"byteOffset": 0,
			"target": 34962
		},
		{
			"buffer": 0,
			"byteLength": 32,
			"byteOffset": 48,
			"target": 34962
		},
		{
			"buffer": 0,
			"byteLength": 12,
			"byteOffset": 80,
			"target": 34963
		},
		{
			"buffer": 1,
			"byteLength": 48,
			"byteOffset": 0,
			"target": 34962
		},
		{
			"buffer": 1,
			"byteLength": 32,
			"byteOffset": 48,
			"target": 34962
		},
		{
			"buffer": 1,
			"byteLength": 12,
			"byteOffset": 80,
			"target": 34963
		}
	],
	"buffers": [
		{
			"byteLength": 92,
			"name": "Canvas 1_buf",
			"uri": "data:application/octet-stream;base64,"
		},
		{
			"byteLength": 92,
			"name": "Canvas 2_buf",
			"uri": "data:application/octet-stream;base64,"
		}
	],
	"extensionsUsed": [
		"KHR_materials_unlit"
	],
	"images": [
		{
			"mimeType": "image/png",
			"name": "Canvas 1_img",
			"uri": "data:image/png;base64,"
		},
		{
			"mimeType": "image/png",
			"name": "Canvas 2_img",
			"uri": "data:image/png;base64,"
		}
	],
	"materials": [
		{
			"alphaMode": "BLEND",
			"doubleSided": true,
			"extensions": {
				"KHR_materials_unlit": {

				}
			},
			"name": "Canvas 1_mat",
			"pbrMetallicRoughness": {
				"baseColorTexture": {
					"index": 0
				},
				"metallicFactor": 0.0,
				"roughnessFactor": 1.0
			}
		},
		{
			"alphaMode": "BLEND",
			"doubleSided": true,
			"extensions": {
				"KHR_materials_unlit": {

				}
			},
			"name": "Canvas 2_mat",
			"pbrMetallicRoughness": {
				"baseColorTexture": {
					"index": 1
				},
				"metallicFactor": 0.0,
				"roughnessFactor": 1.0
			}
		}
	],
	"meshes": [
		{
			"name": "Canvas 1_mesh",
			"primitives": [
				{
					"attributes": {
						"POSITION": 0,
						"TEXCOORD_0": 1
					},
					"indices": 2,
					"material": 0,
					"mode": 4
				}
			]
		},
		{
			"name": "Canvas 2_mesh",
			"primitives": [
				{
					"attributes": {
						"POSITION": 3,
						"TEXCOORD_0": 4
					},
					"indices": 5,
					"material": 1,
					"mode": 4
				}
			]
		}
	],
	"nodes": [
		{
			"mesh": 0,
			"name": "Canvas 1",
			"translation": [
				0.0,
				0.0,
				0.0
			]
		},
		{
			"mesh": 1,
			"name": "Canvas 2",
			"translation": [
				0.0,
				0.0,
				-0.65
			]
		}
	],
	"samplers": [
		{
			"magFilter": 9729,
			"minFilter": 9729,
			"wrapS": 10497,
			"wrapT": 10497
		}
	],
	"scene": 0,
	"scenes": [
		{
			"nodes": [
				0,
				1
			]
		}
	],
	"textures": [
		{
			"name": "Canvas 1_tex",
			"sampler": 0,
			"source": 0
		},
		{
			"name": "Canvas 2_tex",
			"sampler": 0,
			"source": 1
		}
	]
}